<svg width="24" height="24" viewBox="0 0 24 24" fill="none" xmlns="http://www.w3.org/2000/svg">
<path fill-rule="evenodd" clip-rule="evenodd" d="M21.7071 2.29289C22.0976 2.68342 22.0976 3.31658 21.7071 3.70711L10.7071 14.7071C10.3166 15.0976 9.68342 15.0976 9.29289 14.7071C8.90237 14.3166 8.90237 13.6834 9.29289 13.2929L20.2929 2.29289C20.6834 1.90237 21.3166 1.90237 21.7071 2.29289Z" fill="#6B7280"/>
<path fill-rule="evenodd" clip-rule="evenodd" d="M21.7067 2.29292C21.9808 2.56708 22.0718 2.975 21.9401 3.33967L15.4401 21.3397C15.4307 21.3657 15.4202 21.3914 15.4087 21.4166C15.285 21.6864 15.0865 21.9151 14.8367 22.0754C14.5869 22.2357 14.2964 22.3209 13.9996 22.3209C13.7028 22.3209 13.4122 22.2357 13.1624 22.0754C12.9186 21.9189 12.7237 21.6974 12.5995 21.4359L9.25423 14.7454L2.56371 11.4001C2.30227 11.276 2.08069 11.081 1.92422 10.8372C1.76392 10.5874 1.67871 10.2968 1.67871 10C1.67871 9.70323 1.76392 9.41267 1.92422 9.16288C2.08452 8.9131 2.31317 8.71458 2.58298 8.59094C2.60819 8.57939 2.63386 8.56889 2.65994 8.55947L20.6599 2.05947C21.0246 1.92779 21.4325 2.01876 21.7067 2.29292ZM4.37134 10.0679L10.4468 13.1056C10.6403 13.2024 10.7972 13.3593 10.894 13.5528L13.9317 19.6283L19.3354 4.66417L4.37134 10.0679Z" fill="#6B7280"/>
</svg>
