<svg width="18" height="18" viewBox="0 0 18 18" fill="none" xmlns="http://www.w3.org/2000/svg">
<path fill-rule="evenodd" clip-rule="evenodd" d="M9 3C5.68629 3 3 5.68629 3 9C3 12.3137 5.68629 15 9 15C12.3137 15 15 12.3137 15 9C15 5.68629 12.3137 3 9 3ZM1.5 9C1.5 4.85786 4.85786 1.5 9 1.5C13.1421 1.5 16.5 4.85786 16.5 9C16.5 13.1421 13.1421 16.5 9 16.5C4.85786 16.5 1.5 13.1421 1.5 9Z" fill="#6B7280"/>
<path fill-rule="evenodd" clip-rule="evenodd" d="M6 7.50562C6 7.0914 6.33579 6.75562 6.75 6.75562H6.7575C7.17171 6.75562 7.5075 7.0914 7.5075 7.50562C7.5075 7.91983 7.17171 8.25562 6.7575 8.25562H6.75C6.33579 8.25562 6 7.91983 6 7.50562Z" fill="#6B7280"/>
<path fill-rule="evenodd" clip-rule="evenodd" d="M10.5 7.50562C10.5 7.0914 10.8358 6.75562 11.25 6.75562H11.2575C11.6717 6.75562 12.0075 7.0914 12.0075 7.50562C12.0075 7.91983 11.6717 8.25562 11.2575 8.25562H11.25C10.8358 8.25562 10.5 7.91983 10.5 7.50562Z" fill="#6B7280"/>
<path fill-rule="evenodd" clip-rule="evenodd" d="M6.60011 10.7143C6.89598 10.4244 7.37083 10.4292 7.66071 10.7251C7.83529 10.9033 8.04367 11.0448 8.27364 11.1415C8.50361 11.2381 8.75055 11.2879 9 11.2879C9.24945 11.2879 9.49639 11.2381 9.72636 11.1415C9.95633 11.0448 10.1647 10.9033 10.3393 10.7251C10.6292 10.4292 11.104 10.4244 11.3999 10.7143C11.6958 11.0042 11.7006 11.479 11.4107 11.7749C11.0965 12.0956 10.7214 12.3504 10.3074 12.5243C9.8935 12.6983 9.44901 12.7879 9 12.7879C8.55099 12.7879 8.1065 12.6983 7.69255 12.5243C7.2786 12.3504 6.90353 12.0956 6.58929 11.7749C6.2994 11.479 6.30424 11.0042 6.60011 10.7143Z" fill="#6B7280"/>
</svg>
