<svg width="16" height="16" viewBox="0 0 16 16" fill="none" xmlns="http://www.w3.org/2000/svg">
<path fill-rule="evenodd" clip-rule="evenodd" d="M3.25237 2.58329C3.62744 2.20822 4.13615 1.9975 4.66659 1.9975C5.03478 1.9975 5.33325 2.29598 5.33325 2.66417C5.33325 3.03236 5.03478 3.33084 4.66659 3.33084C4.48977 3.33084 4.32021 3.40108 4.19518 3.5261C4.07016 3.65112 3.99992 3.82069 3.99992 3.9975V5.9975C3.99992 6.63581 3.83263 7.27872 3.49743 7.78152C3.44741 7.85655 3.39319 7.92882 3.33502 7.99751C3.39319 8.06619 3.44741 8.13846 3.49743 8.21349C3.83263 8.71629 3.99992 9.3592 3.99992 9.9975V11.9975C3.99992 12.1743 4.07016 12.3439 4.19518 12.4689C4.32021 12.5939 4.48977 12.6642 4.66659 12.6642C5.03478 12.6642 5.33325 12.9626 5.33325 13.3308C5.33325 13.699 5.03478 13.9975 4.66659 13.9975C4.13615 13.9975 3.62744 13.7868 3.25237 13.4117C2.8773 13.0366 2.66659 12.5279 2.66659 11.9975V9.9975C2.66659 9.57494 2.55292 9.20043 2.38803 8.95309C2.22337 8.70611 2.06953 8.66417 1.99992 8.66417C1.63173 8.66417 1.33325 8.36569 1.33325 7.9975C1.33325 7.62931 1.63173 7.33084 1.99992 7.33084C2.06953 7.33084 2.22337 7.2889 2.38803 7.04192C2.55292 6.79457 2.66659 6.42007 2.66659 5.9975V3.9975C2.66659 3.46707 2.8773 2.95836 3.25237 2.58329Z" fill="#1F2937"/>
<path fill-rule="evenodd" clip-rule="evenodd" d="M10.6667 2.66417C10.6667 2.29598 10.9652 1.9975 11.3334 1.9975C11.8638 1.9975 12.3726 2.20822 12.7476 2.58329C13.1227 2.95836 13.3334 3.46707 13.3334 3.9975V5.9975C13.3334 6.42007 13.4471 6.79457 13.612 7.04192C13.7766 7.2889 13.9305 7.33084 14.0001 7.33084C14.3683 7.33084 14.6667 7.62931 14.6667 7.9975C14.6667 8.36569 14.3683 8.66417 14.0001 8.66417C13.9305 8.66417 13.7766 8.70611 13.612 8.95309C13.4471 9.20043 13.3334 9.57494 13.3334 9.9975V11.9975C13.3334 12.5279 13.1227 13.0366 12.7476 13.4117C12.3726 13.7868 11.8638 13.9975 11.3334 13.9975C10.9652 13.9975 10.6667 13.699 10.6667 13.3308C10.6667 12.9626 10.9652 12.6642 11.3334 12.6642C11.5102 12.6642 11.6798 12.5939 11.8048 12.4689C11.9298 12.3439 12.0001 12.1743 12.0001 11.9975V9.9975C12.0001 9.3592 12.1674 8.71629 12.5026 8.21349C12.5526 8.13846 12.6068 8.06619 12.665 7.99751C12.6068 7.92883 12.5526 7.85655 12.5026 7.78152C12.1674 7.27872 12.0001 6.63581 12.0001 5.9975V3.9975C12.0001 3.82069 11.9298 3.65112 11.8048 3.5261C11.6798 3.40108 11.5102 3.33084 11.3334 3.33084C10.9652 3.33084 10.6667 3.03236 10.6667 2.66417Z" fill="#1F2937"/>
<path fill-rule="evenodd" clip-rule="evenodd" d="M7.99992 1.99752C8.36811 1.99752 8.66659 2.29599 8.66659 2.66418V13.3309C8.66659 13.699 8.36811 13.9975 7.99992 13.9975C7.63173 13.9975 7.33325 13.699 7.33325 13.3309V2.66418C7.33325 2.29599 7.63173 1.99752 7.99992 1.99752Z" fill="#1F2937"/>
</svg>
