<svg width="16" height="16" viewBox="0 0 16 16" fill="none" xmlns="http://www.w3.org/2000/svg">
<path fill-rule="evenodd" clip-rule="evenodd" d="M6.6665 3.33832C6.29831 3.33832 5.99984 3.6368 5.99984 4.00499V9.33832C5.99984 9.70651 6.29831 10.005 6.6665 10.005H11.9998C12.368 10.005 12.6665 9.70651 12.6665 9.33832V4.00499C12.6665 3.6368 12.368 3.33832 11.9998 3.33832H6.6665ZM4.6665 4.00499C4.6665 2.90042 5.56193 2.00499 6.6665 2.00499H11.9998C13.1044 2.00499 13.9998 2.90042 13.9998 4.00499V9.33832C13.9998 10.4429 13.1044 11.3383 11.9998 11.3383H6.6665C5.56193 11.3383 4.6665 10.4429 4.6665 9.33832V4.00499Z" fill="#1F2937"/>
<path fill-rule="evenodd" clip-rule="evenodd" d="M4 5.99502C3.82319 5.99502 3.65362 6.06525 3.5286 6.19028C3.40357 6.3153 3.33333 6.48487 3.33333 6.66168V11.995C3.33333 12.1718 3.40357 12.3414 3.5286 12.4664C3.65362 12.5914 3.82319 12.6617 4 12.6617H9.33333C9.51014 12.6617 9.67971 12.5914 9.80474 12.4664C9.92976 12.3414 10 12.1718 10 11.995V10.6617C10 10.2935 10.2985 9.99502 10.6667 9.99502C11.0349 9.99502 11.3333 10.2935 11.3333 10.6617V11.995C11.3333 12.5255 11.1226 13.0342 10.7475 13.4092C10.3725 13.7843 9.86377 13.995 9.33333 13.995H4C3.46957 13.995 2.96086 13.7843 2.58579 13.4092C2.21071 13.0342 2 12.5255 2 11.995V6.66168C2 6.13125 2.21071 5.62254 2.58579 5.24747C2.96086 4.8724 3.46957 4.66168 4 4.66168H5.33333C5.70152 4.66168 6 4.96016 6 5.32835C6 5.69654 5.70152 5.99502 5.33333 5.99502H4Z" fill="#1F2937"/>
</svg>
