<svg width="24" height="24" viewBox="0 0 24 24" fill="none" xmlns="http://www.w3.org/2000/svg">
<path fill-rule="evenodd" clip-rule="evenodd" d="M12 11.173C11.5398 11.173 11.1667 11.5461 11.1667 12.0063C11.1667 12.4666 11.5398 12.8397 12 12.8397C12.4602 12.8397 12.8333 12.4666 12.8333 12.0063C12.8333 11.5461 12.4602 11.173 12 11.173ZM9.5 12.0063C9.5 10.6256 10.6193 9.50635 12 9.50635C13.3807 9.50635 14.5 10.6256 14.5 12.0063C14.5 13.3871 13.3807 14.5063 12 14.5063C10.6193 14.5063 9.5 13.3871 9.5 12.0063Z" fill="#9CA3AF"/>
<path fill-rule="evenodd" clip-rule="evenodd" d="M3.16663 11.3332C3.53482 11.0571 4.05716 11.1317 4.3333 11.4999L5.57199 13.1515C6.35186 14.0967 7.33066 14.8584 8.43869 15.3822C9.55213 15.9085 10.7684 16.1815 12 16.1815C13.2315 16.1815 14.4478 15.9085 15.5612 15.3822C16.6693 14.8584 17.6481 14.0967 18.428 13.1515L19.6666 11.4999C19.9428 11.1317 20.4651 11.0571 20.8333 11.3332C21.2015 11.6094 21.2761 12.1317 21 12.4999L19.75 14.1666C19.7426 14.1764 19.735 14.186 19.7272 14.1955C18.7892 15.3375 17.6096 16.2574 16.2735 16.889C14.9374 17.5205 13.4779 17.8481 12 17.8481C10.5221 17.8481 9.06257 17.5205 7.72643 16.889C6.3903 16.2574 5.21077 15.3375 4.27269 14.1955C4.26491 14.186 4.25733 14.1764 4.24997 14.1666L2.99997 12.4999C2.72383 12.1317 2.79844 11.6094 3.16663 11.3332Z" fill="#9CA3AF"/>
<path fill-rule="evenodd" clip-rule="evenodd" d="M12 7.81364C10.7684 7.81364 9.55213 8.08662 8.43869 8.61294C7.33066 9.13669 6.35186 9.89837 5.572 10.8436L4.3333 12.4952C4.05716 12.8634 3.53483 12.938 3.16663 12.6619C2.79844 12.3857 2.72383 11.8634 2.99997 11.4952L4.24997 9.82855C4.25733 9.81873 4.26491 9.80908 4.27269 9.7996C5.21076 8.65759 6.3903 7.73771 7.72643 7.10613C9.06257 6.47455 10.5221 6.14697 12 6.14697C13.4779 6.14697 14.9374 6.47455 16.2735 7.10613C17.6096 7.73771 18.7892 8.65759 19.7272 9.7996C19.735 9.80908 19.7426 9.81873 19.75 9.82855L21 11.4952C21.2761 11.8634 21.2015 12.3857 20.8333 12.6619C20.4651 12.938 19.9428 12.8634 19.6666 12.4952L18.4279 10.8436C17.6481 9.89837 16.6693 9.13669 15.5612 8.61294C14.4478 8.08662 13.2315 7.81364 12 7.81364Z" fill="#9CA3AF"/>
</svg>
