<svg width="16" height="16" viewBox="0 0 16 16" fill="none" xmlns="http://www.w3.org/2000/svg">
<g id="icons / bx-dollar">
<path id="Vector" d="M10.6662 5.66683H11.9995C11.9995 3.7755 10.1628 2.91283 8.66618 2.71416V1.3335H7.33284V2.71416C5.83618 2.91283 3.99951 3.7755 3.99951 5.66683C3.99951 7.47083 5.77684 8.40883 7.33284 8.62016V11.9335C6.36751 11.7662 5.33285 11.2508 5.33285 10.3335H3.99951C3.99951 12.0595 5.61618 13.0795 7.33284 13.2908V13.9995V14.6668H8.66618V13.9995V13.2868C10.1628 13.0882 11.9995 12.2248 11.9995 10.3335C11.9995 8.44216 10.1628 7.5795 8.66618 7.38083V4.06683C9.55285 4.22616 10.6662 4.69416 10.6662 5.66683ZM5.33285 5.66683C5.33285 4.69416 6.44618 4.22616 7.33284 4.06683V7.26616C6.41884 7.0975 5.33285 6.59816 5.33285 5.66683ZM10.6662 10.3335C10.6662 11.3062 9.55285 11.7742 8.66618 11.9335V8.7335C9.55285 8.89283 10.6662 9.36083 10.6662 10.3335Z" fill="#6B7280"/>
</g>
</svg>
