<svg width="20" height="20" viewBox="0 0 20 20" fill="none" xmlns="http://www.w3.org/2000/svg">
<g id="icons/grips/grip-vertical">
<path id="Vector (Stroke)" fill-rule="evenodd" clip-rule="evenodd" d="M5.83301 4.17289C5.83301 3.25242 6.5792 2.50623 7.49967 2.50623C8.42015 2.50623 9.16634 3.25242 9.16634 4.17289C9.16634 5.09337 8.42015 5.83956 7.49967 5.83956C6.5792 5.83956 5.83301 5.09337 5.83301 4.17289Z" fill="#1F2937"/>
<path id="Vector (Stroke)_2" fill-rule="evenodd" clip-rule="evenodd" d="M5.83301 9.99382C5.83301 9.07334 6.5792 8.32715 7.49967 8.32715C8.42015 8.32715 9.16634 9.07334 9.16634 9.99382C9.16634 10.9143 8.42015 11.6605 7.49967 11.6605C6.5792 11.6605 5.83301 10.9143 5.83301 9.99382Z" fill="#1F2937"/>
<path id="Vector (Stroke)_3" fill-rule="evenodd" clip-rule="evenodd" d="M5.83301 15.8333C5.83301 14.9128 6.5792 14.1666 7.49967 14.1666C8.42015 14.1666 9.16634 14.9128 9.16634 15.8333C9.16634 16.7538 8.42015 17.5 7.49967 17.5C6.5792 17.5 5.83301 16.7538 5.83301 15.8333Z" fill="#1F2937"/>
<path id="Vector (Stroke)_4" fill-rule="evenodd" clip-rule="evenodd" d="M10.833 4.17289C10.833 3.25242 11.5792 2.50623 12.4997 2.50623C13.4201 2.50623 14.1663 3.25242 14.1663 4.17289C14.1663 5.09337 13.4201 5.83956 12.4997 5.83956C11.5792 5.83956 10.833 5.09337 10.833 4.17289Z" fill="#1F2937"/>
<path id="Vector (Stroke)_5" fill-rule="evenodd" clip-rule="evenodd" d="M10.833 9.99382C10.833 9.07334 11.5792 8.32715 12.4997 8.32715C13.4201 8.32715 14.1663 9.07334 14.1663 9.99382C14.1663 10.9143 13.4201 11.6605 12.4997 11.6605C11.5792 11.6605 10.833 10.9143 10.833 9.99382Z" fill="#1F2937"/>
<path id="Vector (Stroke)_6" fill-rule="evenodd" clip-rule="evenodd" d="M10.833 15.8333C10.833 14.9128 11.5792 14.1666 12.4997 14.1666C13.4201 14.1666 14.1663 14.9128 14.1663 15.8333C14.1663 16.7538 13.4201 17.5 12.4997 17.5C11.5792 17.5 10.833 16.7538 10.833 15.8333Z" fill="#1F2937"/>
</g>
</svg>
