<svg width="16" height="16" viewBox="0 0 16 16" fill="none" xmlns="http://www.w3.org/2000/svg">
<path fill-rule="evenodd" clip-rule="evenodd" d="M7.99967 2.66666C5.05416 2.66666 2.66634 5.05448 2.66634 8C2.66634 10.9455 5.05416 13.3333 7.99967 13.3333C10.9452 13.3333 13.333 10.9455 13.333 8C13.333 5.05448 10.9452 2.66666 7.99967 2.66666ZM1.33301 8C1.33301 4.3181 4.31778 1.33333 7.99967 1.33333C11.6816 1.33333 14.6663 4.3181 14.6663 8C14.6663 11.6819 11.6816 14.6667 7.99967 14.6667C4.31778 14.6667 1.33301 11.6819 1.33301 8Z" fill="#6B7280"/>
<path fill-rule="evenodd" clip-rule="evenodd" d="M7.33301 5.32835C7.33301 4.96016 7.63148 4.66168 7.99967 4.66168H8.00634C8.37453 4.66168 8.67301 4.96016 8.67301 5.32835C8.67301 5.69654 8.37453 5.99502 8.00634 5.99502H7.99967C7.63148 5.99502 7.33301 5.69654 7.33301 5.32835Z" fill="#6B7280"/>
<path fill-rule="evenodd" clip-rule="evenodd" d="M6.66699 7.99999C6.66699 7.63181 6.96547 7.33333 7.33366 7.33333H8.00033C8.36852 7.33333 8.66699 7.63181 8.66699 7.99999V9.99999C9.03518 9.99999 9.33366 10.2985 9.33366 10.6667C9.33366 11.0349 9.03518 11.3333 8.66699 11.3333H8.00033C7.63214 11.3333 7.33366 11.0349 7.33366 10.6667V8.66666C6.96547 8.66666 6.66699 8.36818 6.66699 7.99999Z" fill="#6B7280"/>
</svg>