<svg width="12" height="12" viewBox="0 0 12 12" fill="none" xmlns="http://www.w3.org/2000/svg">
<path d="M4.59626 6.86295C7.10059 6.54014 7.632 6.21666 7.98829 2.37122C7.98871 2.26667 8.0754 2.18188 8.18136 2.18188C8.28774 2.18188 8.37402 2.26708 8.37486 2.37122C8.67663 6.18838 9.21013 6.49839 11.7669 6.86295C11.8955 6.86378 11.9998 6.96626 11.9998 7.09098C11.9998 7.2161 11.8955 7.31859 11.7669 7.31941C9.14956 7.76082 8.62923 8.07049 8.37486 11.8107C8.37444 11.9153 8.28775 12.0001 8.18178 12.0001C8.07582 12.0001 7.98913 11.9153 7.98829 11.8111C7.67544 7.98947 7.15356 7.65615 4.59626 7.31941C4.4681 7.31859 4.36339 7.2161 4.36339 7.09098C4.36339 6.96626 4.4681 6.86378 4.59626 6.86295Z" fill="#F59E0B"/>
<path d="M1.19048 9.71695C2.26376 9.57348 2.49151 9.42971 2.6442 7.72062C2.64438 7.67416 2.68154 7.63647 2.72695 7.63647C2.77254 7.63647 2.80952 7.67434 2.80988 7.72062C2.93921 9.41714 3.16785 9.55492 4.2636 9.71695C4.31871 9.71731 4.3634 9.76286 4.3634 9.81829C4.3634 9.8739 4.31871 9.91945 4.2636 9.91982C3.14189 10.116 2.91889 10.2536 2.80988 11.916C2.8097 11.9624 2.77254 12.0001 2.72713 12.0001C2.68172 12.0001 2.64456 11.9624 2.6442 11.9161C2.51012 10.2176 2.28646 10.0695 1.19048 9.91982C1.13555 9.91945 1.09068 9.8739 1.09068 9.81829C1.09068 9.76286 1.13555 9.71731 1.19048 9.71695Z" fill="#FBBF24"/>
<path d="M0.166132 3.12071C1.95494 2.90551 2.33452 2.68985 2.58901 0.126222C2.58931 0.0565257 2.65124 0 2.72692 0C2.80291 0 2.86454 0.0568001 2.86513 0.126222C3.08069 2.671 3.46176 2.87767 5.28801 3.12071C5.37986 3.12126 5.45435 3.18959 5.45435 3.27273C5.45435 3.35614 5.37986 3.42447 5.28801 3.42502C3.41849 3.71929 3.04683 3.92574 2.86513 6.41923C2.86484 6.48893 2.80291 6.54545 2.72722 6.54545C2.65154 6.54545 2.58961 6.48893 2.58901 6.41951C2.36555 3.87172 1.99278 3.64951 0.166132 3.42502C0.0745902 3.42447 -0.000199795 3.35614 -0.000199795 3.27273C-0.000199795 3.18959 0.0745902 3.12126 0.166132 3.12071Z" fill="#FBBF24"/>
</svg>
