<svg width="15" height="17" viewBox="0 0 15 17" fill="none" xmlns="http://www.w3.org/2000/svg">
<g clip-path="url(#clip0_11017_208445)">
<path d="M5.87683 15.7008V15.7289C5.86315 16.1483 6.07905 16.5417 6.44009 16.7554C6.80114 16.9692 7.24994 16.9692 7.61099 16.7554C7.97203 16.5417 8.18793 16.1483 8.17425 15.7289V15.7008H5.87683Z" fill="#707583"/>
<path d="M7.02549 17C6.68825 17 6.36481 16.866 6.12634 16.6275C5.88788 16.3891 5.75391 16.0656 5.75391 15.7284V15.7003C5.75391 15.6327 5.80865 15.578 5.87617 15.578H8.17359C8.24111 15.578 8.29585 15.6327 8.29585 15.7003V15.7284C8.29585 16.4302 7.72729 16.9993 7.02549 17ZM6.00333 15.8233C6.05543 16.3487 6.4974 16.749 7.02537 16.749C7.55334 16.749 7.9953 16.3487 8.0474 15.8233H6.00333Z" fill="#151920"/>
<path d="M9.26419 13.187C9.41091 12.0959 9.94889 11.1593 10.6982 10.3042C11.8798 8.94548 12.228 7.05116 11.6066 5.36111C11.1579 4.06107 10.1507 3.03021 8.86144 2.5514C5.3998 1.28006 2.14698 3.80586 2.14698 7.09291C2.14509 8.27433 2.57377 9.41596 3.35279 10.3042C4.10131 11.16 4.63978 12.0959 4.78699 13.1872L9.26419 13.187Z" fill="#EFBB44"/>
<path d="M10.6984 10.3054C9.95016 11.1588 9.41218 12.0954 9.26546 13.186H8.7666C9.03091 12.3666 9.47069 11.6147 10.0553 10.9827C11.2356 9.62371 11.5831 7.73027 10.9625 6.04066C10.5136 4.74042 9.50603 3.70951 8.2164 3.23095C6.50459 2.56013 4.56186 2.89553 3.17407 4.1015C4.51692 2.38126 6.83194 1.75025 8.86197 2.55114C10.1511 3.02972 11.1579 4.06075 11.6057 5.36085C12.2272 7.05117 11.8796 8.94582 10.6984 10.3054Z" fill="#EBAA15"/>
<path d="M7.0063 1.28125C6.93877 1.28125 6.88403 1.22651 6.88403 1.15898V0.156386C6.88403 0.0888598 6.93877 0.0341187 7.0063 0.0341187C7.07383 0.0341187 7.12857 0.0888598 7.12857 0.156386V1.15898C7.12857 1.22651 7.07383 1.28125 7.0063 1.28125Z" fill="#151920"/>
<path d="M4.06914 2.07895C4.02546 2.07895 3.98509 2.05564 3.96325 2.01782L3.46244 1.1502C3.43835 1.1123 3.43697 1.06424 3.45886 1.02502C3.48075 0.985806 3.52237 0.961745 3.56728 0.962353C3.61219 0.96296 3.65315 0.98814 3.67397 1.02794L4.17478 1.89653C4.19662 1.93436 4.19662 1.98096 4.17478 2.01879C4.15294 2.05662 4.11257 2.07993 4.06889 2.07993L4.06914 2.07895Z" fill="#151920"/>
<path d="M1.92377 4.23818C1.9023 4.23818 1.88122 4.23253 1.86263 4.2218L0.995266 3.72075C0.937285 3.68676 0.91761 3.61234 0.951216 3.55413C0.984821 3.49593 1.05911 3.47576 1.11753 3.50898L1.9849 4.00979C2.03282 4.03746 2.05619 4.09387 2.04186 4.14732C2.02754 4.20077 1.9791 4.23794 1.92377 4.23794V4.23818Z" fill="#151920"/>
<path d="M1.14586 7.18069H0.143264C0.0757372 7.18069 0.0209961 7.12595 0.0209961 7.05843C0.0209961 6.9909 0.0757372 6.93616 0.143264 6.93616H1.14586C1.21339 6.93616 1.26813 6.9909 1.26813 7.05843C1.26813 7.12595 1.21339 7.18069 1.14586 7.18069Z" fill="#151920"/>
<path d="M1.07589 10.6189C1.02055 10.6189 0.972113 10.5817 0.957791 10.5282C0.943468 10.4748 0.966831 10.4184 1.01475 10.3907L1.88285 9.8899C1.94128 9.85668 2.01557 9.87685 2.04917 9.93505C2.08278 9.99326 2.0631 10.0677 2.00512 10.1017L1.13653 10.602C1.11814 10.6128 1.09723 10.6186 1.07589 10.6189Z" fill="#151920"/>
<path d="M9.98237 2.07895C9.93869 2.07895 9.89833 2.05564 9.87649 2.01781C9.85465 1.97998 9.85465 1.93338 9.87649 1.89555L10.3773 1.02818C10.3981 0.988384 10.4391 0.963205 10.484 0.962597C10.5289 0.961989 10.5705 0.98605 10.5924 1.02527C10.6143 1.06449 10.6129 1.11255 10.5888 1.15045L10.0883 2.01879C10.0662 2.05625 10.0259 2.07915 9.98237 2.07895Z" fill="#151920"/>
<path d="M12.1276 4.23818C12.0723 4.23818 12.0239 4.20101 12.0095 4.14756C11.9952 4.09411 12.0186 4.0377 12.0665 4.01003L12.9339 3.50922C12.9923 3.476 13.0666 3.49617 13.1002 3.55438C13.1338 3.61258 13.1141 3.687 13.0562 3.72099L12.1888 4.2218C12.1702 4.23253 12.1491 4.23818 12.1276 4.23818Z" fill="#151920"/>
<path d="M13.9071 7.18069H12.9045C12.837 7.18069 12.7822 7.12595 12.7822 7.05843C12.7822 6.9909 12.837 6.93616 12.9045 6.93616H13.9071C13.9746 6.93616 14.0294 6.9909 14.0294 7.05843C14.0294 7.12595 13.9746 7.18069 13.9071 7.18069Z" fill="#151920"/>
<path d="M12.9758 10.6189C12.9543 10.6189 12.9332 10.6132 12.9146 10.6025L12.0473 10.1017C11.9893 10.0677 11.9696 9.99326 12.0032 9.93505C12.0368 9.87685 12.1111 9.85668 12.1695 9.8899L13.0369 10.3907C13.0848 10.4184 13.1082 10.4748 13.0939 10.5282C13.0795 10.5817 13.0311 10.6189 12.9758 10.6189Z" fill="#151920"/>
<path d="M8.0795 13.3092C8.07019 13.3093 8.06092 13.3082 8.05187 13.3061C7.9861 13.2908 7.94516 13.2251 7.96041 13.1593L9.09359 8.29431L8.08855 8.66771C8.05354 8.68045 8.01466 8.67677 7.98266 8.65769L7.02555 8.07961L6.06868 8.65769C6.03677 8.67701 5.99777 8.6807 5.9628 8.66771L4.95776 8.29431L6.09118 13.1593C6.10651 13.2252 6.06556 13.291 5.99972 13.3063C5.93388 13.3216 5.86809 13.2807 5.85276 13.2149L4.66774 8.12851C4.65752 8.08462 4.67227 8.03868 4.70613 8.00894C4.7397 7.97965 4.78654 7.97093 4.8284 7.98619L5.99165 8.41829L6.96124 7.8314C7.00017 7.80783 7.04897 7.80783 7.08791 7.8314L8.05773 8.41829L9.22172 7.98546C9.26391 7.9698 9.31129 7.97858 9.34507 8.00832C9.37885 8.03806 9.39355 8.08395 9.38336 8.12778L8.19859 13.2141C8.18593 13.2697 8.13652 13.3092 8.0795 13.3092Z" fill="#EBAA15"/>
<path d="M9.26417 13.187V15.1537C9.26417 15.5629 8.83599 15.8957 8.41172 15.8957H5.48683C5.2936 15.8963 5.10874 15.8169 4.97614 15.6764C4.84355 15.5358 4.77507 15.3466 4.78697 15.1537V13.187H9.26417Z" fill="#84879C"/>
<path d="M8.41202 16.0182H5.48688C5.26081 16.0201 5.04406 15.9283 4.88828 15.7644C4.7325 15.6006 4.65165 15.3794 4.665 15.1538V13.187C4.665 13.1194 4.71974 13.0647 4.78727 13.0647H9.26423C9.33175 13.0647 9.38649 13.1194 9.38649 13.187V15.1538C9.34203 15.6546 8.91458 16.0338 8.41202 16.0182ZM4.90929 13.3092V15.1538C4.8963 15.3144 4.95147 15.4731 5.0613 15.591C5.17113 15.7089 5.3255 15.7752 5.48664 15.7737H8.41202C8.75657 15.7737 9.14196 15.5086 9.14196 15.1538V13.3092H4.90929Z" fill="#151920"/>
<path d="M4.45056 14.3864C4.38303 14.3898 4.32555 14.3378 4.32218 14.2703C4.3188 14.2027 4.3708 14.1453 4.43833 14.1419L9.55083 13.6178C9.61782 13.6117 9.67739 13.6603 9.68484 13.7271C9.69167 13.7942 9.64287 13.8542 9.57578 13.8611L4.46303 14.3857L4.45056 14.3864Z" fill="#151920"/>
<path d="M4.48816 15.391C4.42063 15.3943 4.36315 15.3423 4.35977 15.2748C4.3564 15.2073 4.4084 15.1498 4.47593 15.1464L9.55077 14.627C9.61772 14.621 9.67721 14.6696 9.68478 14.7363C9.69161 14.8034 9.64281 14.8634 9.57572 14.8703L4.50063 15.3905L4.48816 15.391Z" fill="#151920"/>
<path d="M9.26437 13.3092H4.78692C4.72531 13.3098 4.67291 13.2644 4.66465 13.2033C4.53432 12.2379 4.07459 11.3157 3.25955 10.3843C2.32385 9.31434 1.88782 7.89666 2.06049 6.48579C2.23316 5.07492 2.99821 3.80424 4.16433 2.99151C5.55458 2.03289 7.32941 1.82519 8.90343 2.4369C10.2252 2.93186 11.2582 3.98938 11.722 5.32242C12.3535 7.05427 11.9967 8.9924 10.7898 10.3858C9.97474 11.3167 9.51551 12.2386 9.38517 13.2043C9.37654 13.2644 9.3251 13.3091 9.26437 13.3092ZM4.89256 13.0647H9.15873C9.31376 12.0887 9.78792 11.1573 10.6061 10.2236C11.7547 8.896 12.0934 7.05006 11.4909 5.40116C11.0511 4.13761 10.0718 3.1353 8.81882 2.66627C7.32006 2.08329 5.62986 2.28036 4.30543 3.19252C3.19629 3.96547 2.46857 5.17399 2.30426 6.51587C2.13994 7.85776 2.55455 9.20615 3.44442 10.2239C4.26313 11.1583 4.73728 12.089 4.89256 13.0647Z" fill="#151920"/>
<path d="M4.13268 9.95348C4.08661 9.95348 4.0428 9.9335 4.01261 9.89871L3.98962 9.8723C3.95955 9.83806 3.93191 9.80236 3.90404 9.76641L3.86956 9.72264C3.83417 9.67817 3.8252 9.61821 3.84602 9.56533C3.86684 9.51245 3.91429 9.4747 3.97049 9.46629C4.02669 9.45788 4.08311 9.4801 4.11849 9.52457L4.15493 9.57127C4.17938 9.60208 4.20384 9.6329 4.22829 9.66224L4.25274 9.68987C4.29354 9.73689 4.30314 9.8034 4.27729 9.86003C4.25145 9.91666 4.19493 9.953 4.13268 9.95299V9.95348Z" fill="white"/>
<path d="M3.5415 9.06969C3.4807 9.06962 3.42526 9.03488 3.39869 8.98019C2.95251 8.06137 2.87167 7.00745 3.17249 6.03133C3.19971 5.94924 3.28756 5.90398 3.37021 5.92946C3.45285 5.95495 3.49995 6.04183 3.47621 6.12499C3.3671 6.47925 3.31162 6.84786 3.31164 7.21855C3.31018 7.78084 3.43767 8.33598 3.68431 8.84129C3.70819 8.89056 3.70509 8.94864 3.67608 8.99507C3.64708 9.04151 3.59625 9.06978 3.5415 9.06993V9.06969Z" fill="white"/>
</g>
<defs>
<clipPath id="clip0_11017_208445">
<rect width="14.45" height="17" fill="white"/>
</clipPath>
</defs>
</svg>
