<svg width="17" height="16" viewBox="0 0 17 16" fill="none" xmlns="http://www.w3.org/2000/svg">
<g id="icons/Stars" clip-path="url(#clip0_45187_183351)">
<path id="Vector (Stroke)" fill-rule="evenodd" clip-rule="evenodd" d="M13.7917 0.666992C14.1599 0.666992 14.4583 0.965469 14.4583 1.33366C14.4583 1.59888 14.5637 1.85323 14.7512 2.04077C14.9388 2.2283 15.1931 2.33366 15.4583 2.33366C15.8265 2.33366 16.125 2.63214 16.125 3.00033C16.125 3.36852 15.8265 3.66699 15.4583 3.66699C15.1931 3.66699 14.9388 3.77235 14.7512 3.95989C14.5637 4.14742 14.4583 4.40178 14.4583 4.66699C14.4583 5.03518 14.1599 5.33366 13.7917 5.33366C13.4235 5.33366 13.125 5.03518 13.125 4.66699C13.125 4.40178 13.0196 4.14742 12.8321 3.95989C12.6446 3.77235 12.3902 3.66699 12.125 3.66699C11.7568 3.66699 11.4583 3.36852 11.4583 3.00033C11.4583 2.63214 11.7568 2.33366 12.125 2.33366C12.3902 2.33366 12.6446 2.2283 12.8321 2.04077C13.0196 1.85323 13.125 1.59888 13.125 1.33366C13.125 0.965469 13.4235 0.666992 13.7917 0.666992ZM13.7917 2.96665C13.7861 2.97232 13.7805 2.97796 13.7749 2.98357C13.7693 2.98919 13.7637 2.99477 13.758 3.00033C13.7637 3.00588 13.7693 3.01146 13.7749 3.01708C13.7805 3.02269 13.7861 3.02833 13.7917 3.034C13.7972 3.02833 13.8028 3.02269 13.8084 3.01708C13.814 3.01146 13.8197 3.00588 13.8253 3.00033C13.8197 2.99477 13.814 2.98919 13.8084 2.98357C13.8028 2.97796 13.7972 2.97232 13.7917 2.96665ZM6.29167 2.33366C6.65986 2.33366 6.95833 2.63214 6.95833 3.00033C6.95833 4.1496 7.41488 5.2518 8.22754 6.06445C9.0402 6.87711 10.1424 7.33366 11.2917 7.33366C11.6599 7.33366 11.9583 7.63213 11.9583 8.00033C11.9583 8.36852 11.6599 8.66699 11.2917 8.66699C10.1424 8.66699 9.0402 9.12354 8.22754 9.9362C7.41488 10.7489 6.95833 11.8511 6.95833 13.0003C6.95833 13.3685 6.65986 13.667 6.29167 13.667C5.92348 13.667 5.625 13.3685 5.625 13.0003C5.625 11.8511 5.16845 10.7489 4.3558 9.9362C3.54314 9.12354 2.44094 8.66699 1.29167 8.66699C0.923477 8.66699 0.625 8.36852 0.625 8.00033C0.625 7.63213 0.923477 7.33366 1.29167 7.33366C2.44094 7.33366 3.54314 6.87711 4.3558 6.06445C5.16845 5.2518 5.625 4.1496 5.625 3.00033C5.625 2.63214 5.92348 2.33366 6.29167 2.33366ZM6.29167 5.66701C6.03092 6.15594 5.69758 6.60829 5.2986 7.00726C4.89963 7.40624 4.44728 7.73958 3.95835 8.00033C4.44728 8.26108 4.89963 8.59441 5.2986 8.99339C5.69758 9.39236 6.03092 9.84471 6.29167 10.3336C6.55242 9.84471 6.88575 9.39236 7.28473 8.99339C7.6837 8.59441 8.13605 8.26108 8.62498 8.00033C8.13605 7.73958 7.6837 7.40624 7.28473 7.00726C6.88575 6.60829 6.55242 6.15594 6.29167 5.66701ZM13.7917 10.667C14.1599 10.667 14.4583 10.9655 14.4583 11.3337C14.4583 11.5989 14.5637 11.8532 14.7512 12.0408C14.9388 12.2283 15.1931 12.3337 15.4583 12.3337C15.8265 12.3337 16.125 12.6321 16.125 13.0003C16.125 13.3685 15.8265 13.667 15.4583 13.667C15.1931 13.667 14.9388 13.7723 14.7512 13.9599C14.5637 14.1474 14.4583 14.4018 14.4583 14.667C14.4583 15.0352 14.1599 15.3337 13.7917 15.3337C13.4235 15.3337 13.125 15.0352 13.125 14.667C13.125 14.4018 13.0196 14.1474 12.8321 13.9599C12.6446 13.7723 12.3902 13.667 12.125 13.667C11.7568 13.667 11.4583 13.3685 11.4583 13.0003C11.4583 12.6321 11.7568 12.3337 12.125 12.3337C12.3902 12.3337 12.6446 12.2283 12.8321 12.0408C13.0196 11.8532 13.125 11.5989 13.125 11.3337C13.125 10.9655 13.4235 10.667 13.7917 10.667ZM13.7917 12.9667C13.7861 12.9723 13.7805 12.978 13.7749 12.9836C13.7693 12.9892 13.7637 12.9948 13.758 13.0003C13.7637 13.0059 13.7693 13.0115 13.7749 13.0171C13.7805 13.0227 13.7861 13.0283 13.7917 13.034C13.7972 13.0283 13.8028 13.0227 13.8084 13.0171C13.814 13.0115 13.8197 13.0059 13.8253 13.0003C13.8197 12.9948 13.814 12.9892 13.8084 12.9836C13.8028 12.978 13.7972 12.9723 13.7917 12.9667Z" fill="url(#paint0_linear_45187_183351)"/>
</g>
<defs>
<linearGradient id="paint0_linear_45187_183351" x1="-4.01475" y1="-28.3785" x2="28.0731" y2="-13.5109" gradientUnits="userSpaceOnUse">
<stop offset="0.183258" stop-color="#EB4CE6"/>
<stop offset="0.538789" stop-color="#9D54DB"/>
<stop offset="1" stop-color="#1D4ED8"/>
</linearGradient>
<clipPath id="clip0_45187_183351">
<rect width="16" height="16" fill="white" transform="translate(0.375)"/>
</clipPath>
</defs>
</svg>
